<?xml version="1.0" encoding="utf-8"?>
<!-- Generator: Adobe Illustrator 16.0.0, SVG Export Plug-In . SVG Version: 6.00 Build 0)  -->
<!DOCTYPE svg PUBLIC "-//W3C//DTD SVG 1.1//EN" "http://www.w3.org/Graphics/SVG/1.1/DTD/svg11.dtd">
<svg version="1.1" id="Layer_1" xmlns="http://www.w3.org/2000/svg" xmlns:xlink="http://www.w3.org/1999/xlink" x="0px" y="0px"
	 width="435px" height="90px" viewBox="0 0 435 90" enable-background="new 0 0 435 90" xml:space="preserve">
<g>
	<g>
		<path fill="#FFFFFF" d="M65.366,74.385c-2.242,2.203-4.676,4.014-7.295,5.428c-2.619,1.415-5.322,2.454-8.109,3.118
			c-2.788,0.668-5.511,0.999-8.168,0.999c-4.991,0-9.649-1.08-13.973-3.246c-4.324-2.16-8.068-5.052-11.229-8.67
			s-5.656-7.8-7.484-12.54C7.28,54.73,6.366,49.741,6.366,44.502c0-4.659,0.766-9.299,2.308-13.916
			c1.537-4.616,3.802-8.753,6.798-12.413c2.995-3.661,6.65-6.635,10.978-8.922c4.323-2.286,9.312-3.432,14.968-3.432
			c2.578,0,5.197,0.292,7.86,0.872c2.661,0.584,5.218,1.521,7.673,2.809c2.449,1.29,4.738,2.975,6.857,5.055
			c2.124,2.08,3.932,4.658,5.43,7.735l5.237-2.996C71.811,13.64,67.694,9,62.126,5.382c-5.572-3.617-12.311-5.427-20.21-5.427
			c-6.653,0-12.578,1.311-17.774,3.93c-5.199,2.621-9.588,6.011-13.16,10.17c-3.578,4.16-6.3,8.88-8.17,14.161
			c-1.874,5.285-2.807,10.586-2.807,15.909c0,5.658,1.017,11.211,3.055,16.659c2.037,5.449,4.886,10.315,8.545,14.599
			c3.66,4.286,8.003,7.759,13.036,10.417c5.03,2.664,10.58,3.995,16.653,3.995c3.407,0,6.879-0.438,10.415-1.312
			c3.532-0.874,6.88-2.185,10.04-3.93c3.16-1.746,6.01-3.91,8.548-6.489c2.534-2.578,4.552-5.531,6.048-8.857l-5.365-2.621
			C69.483,69.579,67.613,72.181,65.366,74.385z M282.368,9.127c-2.289-2.621-5.012-4.722-8.172-6.304
			c-3.162-1.578-6.611-2.369-10.353-2.369h-36.425v88.591h6.359V55.606h30.938c3.744,0,7.131-0.77,10.168-2.309
			c3.033-1.541,5.652-3.6,7.857-6.176c2.204-2.578,3.908-5.532,5.114-8.862c1.206-3.326,1.808-6.778,1.808-10.354
			c0-3.326-0.644-6.634-1.932-9.921C286.44,14.7,284.653,11.747,282.368,9.127z M281.868,36.079c-0.873,2.62-2.119,4.95-3.743,6.987
			c-1.62,2.037-3.598,3.658-5.925,4.865c-2.329,1.207-4.949,1.81-7.859,1.81h-30.562V6.192h29.816c2.658,0,5.176,0.584,7.547,1.748
			c2.367,1.167,4.446,2.746,6.234,4.741c1.79,1.995,3.203,4.305,4.243,6.927c1.038,2.62,1.56,5.385,1.56,8.297
			C283.179,30.731,282.741,33.458,281.868,36.079z M354.224,9.127c-2.289-2.621-5.012-4.722-8.172-6.304
			c-3.164-1.578-6.611-2.369-10.352-2.369h-36.426v88.591h6.359V55.606h30.938c3.743,0,7.131-0.77,10.167-2.309
			c3.035-1.541,5.653-3.6,7.858-6.176c2.204-2.578,3.908-5.532,5.114-8.862c1.206-3.326,1.809-6.778,1.809-10.354
			c0-3.326-0.646-6.634-1.932-9.921C358.295,14.7,356.509,11.747,354.224,9.127z M353.725,36.079c-0.875,2.62-2.12,4.95-3.744,6.987
			c-1.62,2.037-3.598,3.658-5.925,4.865c-2.33,1.207-4.949,1.81-7.86,1.81h-30.562V6.192h29.816c2.658,0,5.176,0.584,7.545,1.748
			c2.371,1.167,4.447,2.746,6.236,4.741c1.79,1.995,3.202,4.305,4.243,6.927c1.038,2.62,1.56,5.385,1.56,8.297
			C355.034,30.731,354.597,33.458,353.725,36.079z M412.917,54.606c3.076-0.499,5.904-1.539,8.482-3.118
			c2.576-1.58,4.782-3.575,6.611-5.992c1.828-2.408,3.244-5.133,4.242-8.17c0.998-3.038,1.498-6.176,1.498-9.421
			c0-3.326-0.646-6.634-1.936-9.921c-1.291-3.284-3.057-6.237-5.303-8.857c-2.243-2.621-4.945-4.722-8.105-6.304
			c-3.164-1.578-6.612-2.369-10.355-2.369H371.13v88.591h6.359V55.606h28.691l21.457,33.438h7.357L412.917,54.606z M377.489,49.741
			V6.192h30.188c2.745,0,5.304,0.605,7.673,1.81c2.369,1.209,4.447,2.809,6.236,4.805c1.788,1.997,3.202,4.305,4.242,6.926
			c1.037,2.618,1.559,5.346,1.559,8.173c0,2.746-0.438,5.428-1.309,8.047c-0.875,2.62-2.143,4.95-3.807,6.986
			c-1.664,2.043-3.658,3.683-5.986,4.932c-2.33,1.248-4.909,1.871-7.735,1.871H377.489z M178.347-0.124l-34.408,84.168H83.673
			L121.39-0.124h-6.211L77.462,84.403v5.471h70.672l32.773-82.14l20.59,52.478l12.061,29.662l4.98-4.212L183.466-0.124H178.347z"/>
	</g>
</g>
</svg>
