<svg version="1.1" id="Layer_1" xmlns="http://www.w3.org/2000/svg" xmlns:xlink="http://www.w3.org/1999/xlink" x="0px" y="0px"
	 viewBox="0 0 49 41.8" style="enable-background:new 0 0 49 41.8;" xml:space="preserve">
<path d="M47.1,0H3.2C1.6,0,0,1.2,0,2.8v31.5C0,35.9,1.6,37,3.2,37h11.9l3.2,1.9l4.7,2.7c0.9,0.5,2-0.1,2-1.1V37h22.1
	c1.6,0,1.9-1.1,1.9-2.7V2.8C49,1.2,48.7,0,47.1,0z M7.2,18.6c0-4.8,3.5-9.3,9.9-9.3c4.8,0,7.1,2.7,7.1,2.7l-2.5,4
	c0,0-1.7-1.7-4.2-1.7c-2.8,0-4.3,2.1-4.3,4.3c0,2.1,1.5,4.4,4.5,4.4c2.5,0,4.9-2.1,4.9-2.1l2.2,4.2c0,0-2.7,2.9-7.6,2.9
	C10.8,27.9,7.2,23.5,7.2,18.6z M36.9,27.9c-6.4,0-9.9-4.4-9.9-9.3c0-4.8,3.5-9.3,9.9-9.3C41.7,9.3,44,12,44,12l-2.5,4
	c0,0-1.7-1.7-4.2-1.7c-2.8,0-4.3,2.1-4.3,4.3c0,2.1,1.5,4.4,4.5,4.4c2.5,0,4.9-2.1,4.9-2.1l2.2,4.2C44.5,25,41.9,27.9,36.9,27.9z"/>
</svg>
