<?xml version="1.0" standalone="no"?>
<!DOCTYPE svg PUBLIC "-//W3C//DTD SVG 20010904//EN"
 "http://www.w3.org/TR/2001/REC-SVG-20010904/DTD/svg10.dtd">
<svg version="1.0" xmlns="http://www.w3.org/2000/svg"
 width="436.000000pt" height="114.000000pt" viewBox="0 0 436.000000 114.000000"
 preserveAspectRatio="xMidYMid meet">

<g transform="translate(0.000000,114.000000) scale(0.100000,-0.100000)"
fill="#000000" stroke="none">
<path d="M4282 1130 c-120 -18 -238 -112 -283 -228 -21 -52 -23 -77 -27 -285
l-4 -228 44 3 43 3 5 230 c6 255 9 270 76 339 45 47 106 77 169 85 l50 6 0 39
c0 45 -2 46 -73 36z"/>
<path d="M1758 1113 c-245 -92 -321 -396 -148 -586 139 -153 361 -166 510 -30
l40 35 0 -71 0 -71 45 0 45 0 0 188 c0 103 -4 214 -10 246 -19 120 -98 224
-207 276 -66 32 -207 38 -275 13z m247 -91 c141 -73 195 -239 124 -381 -53
-106 -147 -158 -271 -149 -103 7 -189 63 -233 153 -27 57 -32 164 -10 222 30
77 105 148 185 174 44 15 162 4 205 -19z"/>
<path d="M2598 1117 c-103 -39 -172 -102 -217 -197 l-26 -55 -3 -432 -3 -433
41 0 40 0 0 266 0 266 46 -41 c140 -123 358 -114 493 21 110 109 139 285 69
422 -31 60 -105 133 -166 163 -46 22 -72 28 -146 30 -59 2 -104 -2 -128 -10z
m228 -91 c223 -104 223 -415 -1 -517 -56 -26 -166 -25 -225 2 -95 42 -158 130
-167 231 -10 101 30 191 111 253 79 60 193 73 282 31z"/>
<path d="M3408 1117 c-99 -37 -176 -106 -217 -193 -36 -75 -42 -161 -39 -549
l3 -370 43 -3 42 -3 0 266 0 267 46 -41 c80 -70 198 -102 300 -81 281 57 395
394 204 603 -72 78 -142 110 -255 114 -59 2 -103 -1 -127 -10z m237 -95 c55
-27 118 -98 140 -155 22 -58 17 -165 -10 -222 -28 -57 -97 -120 -152 -139 -54
-18 -154 -20 -200 -3 -110 41 -183 147 -183 266 1 126 79 233 200 272 44 15
161 4 205 -19z"/>
<path d="M253 1101 c-131 -45 -218 -148 -244 -289 -25 -132 44 -287 159 -360
93 -59 200 -76 303 -46 97 28 223 132 188 156 -47 30 -49 30 -91 -7 -123 -112
-304 -106 -408 11 -51 58 -70 109 -70 189 0 265 326 384 496 181 l37 -44 33
16 c19 8 34 19 34 22 0 4 -15 27 -34 52 -90 117 -262 168 -403 119z"/>
<path d="M780 840 c0 -153 -4 -240 -10 -240 -6 0 -10 -45 -10 -115 l0 -115
115 0 c70 0 115 4 115 10 0 6 87 10 240 10 l240 0 0 45 0 45 -237 2 -236 3
222 89 c184 73 221 91 215 105 -3 9 -9 24 -11 34 -3 9 -11 17 -18 17 -6 0 -90
-32 -186 -71 -192 -78 -281 -110 -288 -103 -3 2 5 26 18 52 l23 47 -51 -50
-51 -49 0 262 0 262 -45 0 -45 0 0 -240z"/>
</g>
</svg>
